<?xml version="1.0" standalone="no"?>
<!DOCTYPE svg PUBLIC "-//W3C//DTD SVG 20010904//EN"
 "http://www.w3.org/TR/2001/REC-SVG-20010904/DTD/svg10.dtd">
<svg version="1.0" xmlns="http://www.w3.org/2000/svg"
 width="30.000000px" height="30.000000px" viewBox="0 0 512.000000 512.000000"
 preserveAspectRatio="xMidYMid meet">

<g transform="translate(0.000000,512.000000) scale(0.100000,-0.100000)"
fill="#000000" stroke="none">
<path d="M2372 5050 c-785 -61 -1502 -495 -1927 -1166 -120 -189 -239 -461
-296 -678 -156 -591 -95 -1207 172 -1746 375 -756 1063 -1253 1909 -1377 159
-23 501 -23 665 1 655 94 1223 420 1632 938 270 341 440 744 510 1205 22 149
22 517 0 666 -71 472 -246 875 -532 1232 -396 494 -991 829 -1615 909 -153 20
-379 26 -518 16z m1748 -2100 l0 -1140 -1560 0 -1560 0 0 1140 0 1140 1560 0
1560 0 0 -1140z m-1171 -1257 c14 -51 101 -413 101 -419 0 -2 -220 -4 -490 -4
-269 0 -490 2 -490 6 0 6 99 423 105 442 3 9 89 12 384 12 l380 0 10 -37z
m251 -583 l0 -80 -640 0 -640 0 0 80 0 80 640 0 640 0 0 -80z"/>
<path d="M1152 3938 c-17 -17 -17 -1959 0 -1976 17 -17 2799 -17 2816 0 17 17
17 1959 0 1976 -17 17 -2799 17 -2816 0z m2748 -988 l0 -920 -1340 0 -1340 0
0 920 0 920 1340 0 1340 0 0 -920z"/>
<path d="M1436 3644 c-14 -14 -16 -90 -16 -692 0 -409 4 -683 10 -692 8 -13
75 -15 487 -18 386 -2 482 0 497 11 17 12 18 46 17 698 -1 625 -3 685 -18 697
-13 9 -127 12 -489 12 -416 0 -474 -2 -488 -16z m914 -694 l0 -630 -422 2
-423 3 -3 628 -2 627 425 0 425 0 0 -630z"/>
<path d="M1626 3454 c-12 -12 -16 -37 -16 -112 0 -53 4 -102 8 -109 5 -8 91
-14 298 -19 353 -9 334 -16 334 124 0 142 23 132 -320 132 -249 0 -291 -2
-304 -16z m539 -114 l0 -45 -235 0 -235 0 -3 48 -3 47 238 -2 238 -3 0 -45z"/>
<path d="M1622 3088 c-7 -7 -12 -19 -12 -28 0 -38 15 -40 322 -40 284 0 298 1
308 19 13 25 13 27 -6 45 -13 14 -55 16 -308 16 -214 0 -295 -3 -304 -12z"/>
<path d="M1615 2881 c-8 -26 3 -48 28 -55 12 -3 145 -6 295 -6 260 0 273 1
292 20 16 16 18 25 10 40 -10 19 -22 20 -315 20 -287 0 -304 -1 -310 -19z"/>
<path d="M1622 2698 c-7 -7 -12 -19 -12 -28 0 -38 15 -40 322 -40 284 0 298 1
308 19 13 25 13 27 -6 45 -13 14 -55 16 -308 16 -214 0 -295 -3 -304 -12z"/>
<path d="M1622 2498 c-16 -16 -15 -33 4 -52 13 -14 55 -16 303 -16 271 0 289
1 305 19 14 15 15 24 6 40 -10 21 -17 21 -308 21 -219 0 -301 -3 -310 -12z"/>
<path d="M2703 3648 c-7 -8 -13 -270 -17 -690 -6 -670 -6 -678 14 -698 19 -19
33 -20 494 -20 418 0 476 2 490 16 14 14 16 90 16 694 0 604 -2 680 -16 694
-14 14 -72 16 -493 16 -371 0 -481 -3 -488 -12z m915 -695 l2 -623 -425 0
-425 0 0 625 0 625 423 -2 422 -3 3 -622z"/>
<path d="M2886 3454 c-12 -12 -16 -37 -16 -110 0 -143 -21 -134 324 -134 245
0 287 2 300 16 13 12 16 38 16 119 0 93 -2 105 -19 115 -12 6 -127 10 -305 10
-245 0 -287 -2 -300 -16z m542 -111 l3 -43 -240 0 -241 0 0 38 c0 21 3 42 7
46 4 3 110 5 237 4 l231 -3 3 -42z"/>
<path d="M2880 3080 c-8 -14 -8 -26 0 -40 11 -20 19 -20 312 -18 274 3 302 5
312 21 8 12 8 22 0 35 -10 15 -38 17 -312 20 -293 2 -301 2 -312 -18z"/>
<path d="M2923 2903 c-20 -3 -37 -12 -44 -25 -10 -18 -8 -25 11 -40 20 -16 47
-18 305 -18 244 0 286 2 299 16 18 18 20 32 6 54 -8 13 -51 15 -277 16 -147 1
-283 -1 -300 -3z"/>
<path d="M2880 2690 c-8 -14 -8 -26 0 -40 11 -20 19 -20 312 -18 274 3 302 5
312 21 8 12 8 22 0 35 -10 15 -38 17 -312 20 -293 2 -301 2 -312 -18z"/>
<path d="M2880 2489 c-9 -16 -8 -25 6 -40 16 -18 34 -19 304 -19 314 0 329 3
316 53 l-6 27 -305 0 c-298 0 -305 0 -315 -21z"/>
</g>
</svg>
